<svg xmlns="http://www.w3.org/2000/svg" width="1024" height="1024" viewBox="0 0 1024 1024">
  <defs>
    <linearGradient id="sp-bg" x1="0" y1="0" x2="0" y2="1">
      <stop offset="0" stop-color="#1b1d24"/><stop offset="1" stop-color="#0a0b0f"/>
    </linearGradient>
    <linearGradient id="sp-cone" x1="0" y1="0" x2="0" y2="1">
      <stop offset="0" stop-color="#8cbeff" stop-opacity="0"/><stop offset="1" stop-color="#8cbeff" stop-opacity=".4"/>
    </linearGradient>
    <linearGradient id="sp-line" x1="0" y1="0" x2="1" y2="0">
      <stop offset="0" stop-color="#9ccaff"/><stop offset="1" stop-color="#3f7bfa"/>
    </linearGradient>
    <filter id="sp-blur" x="-40%" y="-40%" width="180%" height="180%"><feGaussianBlur stdDeviation="14"/></filter>
    <clipPath id="squircle"><rect x="100" y="100" width="824" height="824" rx="185" ry="185"/></clipPath>
    <filter id="soft" x="-30%" y="-30%" width="160%" height="160%"><feGaussianBlur stdDeviation="30"/></filter>
  </defs>
  <rect x="100" y="124" width="824" height="824" rx="185" fill="#000" opacity=".32" filter="url(#soft)"/>
  <g clip-path="url(#squircle)">
    <g transform="translate(100,100) scale(1.609375)">
      <rect width="512" height="512" fill="url(#sp-bg)"/>
      <rect x="120" y="118" width="250" height="24" rx="12" fill="#fff" opacity=".09"/>
      <rect x="120" y="180" width="196" height="24" rx="12" fill="#fff" opacity=".06"/>
      <rect x="120" y="390" width="230" height="24" rx="12" fill="#fff" opacity=".09"/>
      <rect x="120" y="442" width="168" height="24" rx="12" fill="#fff" opacity=".06"/>
      <path d="M198 0 L314 0 L364 312 L148 312 Z" fill="url(#sp-cone)" filter="url(#sp-blur)"/>
      <rect x="138" y="286" width="236" height="46" rx="23" fill="#4d8dff" opacity=".5" filter="url(#sp-blur)"/>
      <rect x="150" y="296" width="212" height="32" rx="16" fill="url(#sp-line)"/>
      <circle cx="182" cy="312" r="9" fill="#fff" opacity=".95"/>
    </g>
  </g>
</svg>
